<svg id="visual" viewBox="0 0 900 600" width="900" height="600" xmlns="http://www.w3.org/2000/svg" xmlns:xlink="http://www.w3.org/1999/xlink" version="1.1"><rect x="0" y="0" width="900" height="600" fill="#001220"></rect><defs><linearGradient id="grad1_0" x1="33.3%" y1="0%" x2="100%" y2="100%"><stop offset="20%" stop-color="#001220" stop-opacity="1"></stop><stop offset="80%" stop-color="#001220" stop-opacity="1"></stop></linearGradient></defs><defs><linearGradient id="grad2_0" x1="0%" y1="0%" x2="66.7%" y2="100%"><stop offset="20%" stop-color="#001220" stop-opacity="1"></stop><stop offset="80%" stop-color="#001220" stop-opacity="1"></stop></linearGradient></defs><g transform="translate(900, 0)"><path d="M0 243.4C-23 219.1 -45.9 194.7 -77.3 186.6C-108.7 178.5 -148.4 186.6 -172.1 172.1C-195.7 157.6 -203.3 120.5 -212.5 88C-221.7 55.6 -232.5 27.8 -243.4 0L0 0Z" fill="#FBAE3C"></path></g><g transform="translate(0, 600)"><path d="M0 -243.4C24.7 -225.1 49.4 -206.8 82.3 -198.6C115.2 -190.5 156.4 -192.4 172.1 -172.1C187.8 -151.8 178.1 -109.3 185.7 -76.9C193.3 -44.5 218.4 -22.3 243.4 0L0 0Z" fill="#FBAE3C"></path></g></svg>