<svg id="visual" viewBox="0 0 900 600" width="900" height="600" xmlns="http://www.w3.org/2000/svg" xmlns:xlink="http://www.w3.org/1999/xlink" version="1.1"><rect x="0" y="0" width="900" height="600" fill="#002233"></rect><path d="M0 364L8.8 359C17.7 354 35.3 344 53 330C70.7 316 88.3 298 106 292.3C123.7 286.7 141.3 293.3 159 307C176.7 320.7 194.3 341.3 212 345.7C229.7 350 247.3 338 265 321.2C282.7 304.3 300.3 282.7 318 267.2C335.7 251.7 353.3 242.3 371 253.3C388.7 264.3 406.3 295.7 423.8 315.3C441.3 335 458.7 343 476.2 348.2C493.7 353.3 511.3 355.7 529 362C546.7 368.3 564.3 378.7 582 367.5C599.7 356.3 617.3 323.7 635 311.5C652.7 299.3 670.3 307.7 688 301.2C705.7 294.7 723.3 273.3 741 274.3C758.7 275.3 776.3 298.7 794 312.7C811.7 326.7 829.3 331.3 847 334C864.7 336.7 882.3 337.3 891.2 337.7L900 338L900 0L891.2 0C882.3 0 864.7 0 847 0C829.3 0 811.7 0 794 0C776.3 0 758.7 0 741 0C723.3 0 705.7 0 688 0C670.3 0 652.7 0 635 0C617.3 0 599.7 0 582 0C564.3 0 546.7 0 529 0C511.3 0 493.7 0 476.2 0C458.7 0 441.3 0 423.8 0C406.3 0 388.7 0 371 0C353.3 0 335.7 0 318 0C300.3 0 282.7 0 265 0C247.3 0 229.7 0 212 0C194.3 0 176.7 0 159 0C141.3 0 123.7 0 106 0C88.3 0 70.7 0 53 0C35.3 0 17.7 0 8.8 0L0 0Z" fill="#0066FF" stroke-linecap="round" stroke-linejoin="miter"></path></svg>