<?xml version="1.0" standalone="no"?><svg xmlns="http://www.w3.org/2000/svg" viewBox="0 0 1440 320"><path fill="#0099ff" fill-opacity="1" d="M0,128L18.5,149.3C36.9,171,74,213,111,208C147.7,203,185,149,222,154.7C258.5,160,295,224,332,256C369.2,288,406,288,443,261.3C480,235,517,181,554,176C590.8,171,628,213,665,197.3C701.5,181,738,107,775,101.3C812.3,96,849,160,886,192C923.1,224,960,224,997,218.7C1033.8,213,1071,203,1108,208C1144.6,213,1182,235,1218,224C1255.4,213,1292,171,1329,154.7C1366.2,139,1403,149,1422,154.7L1440,160L1440,0L1421.5,0C1403.1,0,1366,0,1329,0C1292.3,0,1255,0,1218,0C1181.5,0,1145,0,1108,0C1070.8,0,1034,0,997,0C960,0,923,0,886,0C849.2,0,812,0,775,0C738.5,0,702,0,665,0C627.7,0,591,0,554,0C516.9,0,480,0,443,0C406.2,0,369,0,332,0C295.4,0,258,0,222,0C184.6,0,148,0,111,0C73.8,0,37,0,18,0L0,0Z"></path></svg>