<svg id="visual" viewBox="0 0 900 600" width="900" height="600" xmlns="http://www.w3.org/2000/svg" xmlns:xlink="http://www.w3.org/1999/xlink" version="1.1"><path d="M0 115L13.7 122C27.3 129 54.7 143 82 149C109.3 155 136.7 153 163.8 147C191 141 218 131 245.2 123C272.3 115 299.7 109 327 110C354.3 111 381.7 119 409 123C436.3 127 463.7 127 491 134C518.3 141 545.7 155 573 153C600.3 151 627.7 133 654.8 129C682 125 709 135 736.2 136C763.3 137 790.7 129 818 122C845.3 115 872.7 109 886.3 106L900 103L900 0L886.3 0C872.7 0 845.3 0 818 0C790.7 0 763.3 0 736.2 0C709 0 682 0 654.8 0C627.7 0 600.3 0 573 0C545.7 0 518.3 0 491 0C463.7 0 436.3 0 409 0C381.7 0 354.3 0 327 0C299.7 0 272.3 0 245.2 0C218 0 191 0 163.8 0C136.7 0 109.3 0 82 0C54.7 0 27.3 0 13.7 0L0 0Z" fill="#6198ff"></path><path d="M0 157L13.7 167C27.3 177 54.7 197 82 206C109.3 215 136.7 213 163.8 203C191 193 218 175 245.2 170C272.3 165 299.7 173 327 179C354.3 185 381.7 189 409 191C436.3 193 463.7 193 491 198C518.3 203 545.7 213 573 213C600.3 213 627.7 203 654.8 199C682 195 709 197 736.2 192C763.3 187 790.7 175 818 172C845.3 169 872.7 175 886.3 178L900 181L900 101L886.3 104C872.7 107 845.3 113 818 120C790.7 127 763.3 135 736.2 134C709 133 682 123 654.8 127C627.7 131 600.3 149 573 151C545.7 153 518.3 139 491 132C463.7 125 436.3 125 409 121C381.7 117 354.3 109 327 108C299.7 107 272.3 113 245.2 121C218 129 191 139 163.8 145C136.7 151 109.3 153 82 147C54.7 141 27.3 127 13.7 120L0 113Z" fill="#3c80ff"></path><path d="M0 277L13.7 288C27.3 299 54.7 321 82 337C109.3 353 136.7 363 163.8 377C191 391 218 409 245.2 402C272.3 395 299.7 363 327 359C354.3 355 381.7 379 409 394C436.3 409 463.7 415 491 399C518.3 383 545.7 345 573 325C600.3 305 627.7 303 654.8 313C682 323 709 345 736.2 344C763.3 343 790.7 319 818 302C845.3 285 872.7 275 886.3 270L900 265L900 179L886.3 176C872.7 173 845.3 167 818 170C790.7 173 763.3 185 736.2 190C709 195 682 193 654.8 197C627.7 201 600.3 211 573 211C545.7 211 518.3 201 491 196C463.7 191 436.3 191 409 189C381.7 187 354.3 183 327 177C299.7 171 272.3 163 245.2 168C218 173 191 191 163.8 201C136.7 211 109.3 213 82 204C54.7 195 27.3 175 13.7 165L0 155Z" fill="#0066ff"></path><path d="M0 499L13.7 506C27.3 513 54.7 527 82 527C109.3 527 136.7 513 163.8 514C191 515 218 531 245.2 533C272.3 535 299.7 523 327 520C354.3 517 381.7 523 409 531C436.3 539 463.7 549 491 553C518.3 557 545.7 555 573 542C600.3 529 627.7 505 654.8 506C682 507 709 533 736.2 534C763.3 535 790.7 511 818 500C845.3 489 872.7 491 886.3 492L900 493L900 263L886.3 268C872.7 273 845.3 283 818 300C790.7 317 763.3 341 736.2 342C709 343 682 321 654.8 311C627.7 301 600.3 303 573 323C545.7 343 518.3 381 491 397C463.7 413 436.3 407 409 392C381.7 377 354.3 353 327 357C299.7 361 272.3 393 245.2 400C218 407 191 389 163.8 375C136.7 361 109.3 351 82 335C54.7 319 27.3 297 13.7 286L0 275Z" fill="#0059dd"></path><path d="M0 601L13.7 601C27.3 601 54.7 601 82 601C109.3 601 136.7 601 163.8 601C191 601 218 601 245.2 601C272.3 601 299.7 601 327 601C354.3 601 381.7 601 409 601C436.3 601 463.7 601 491 601C518.3 601 545.7 601 573 601C600.3 601 627.7 601 654.8 601C682 601 709 601 736.2 601C763.3 601 790.7 601 818 601C845.3 601 872.7 601 886.3 601L900 601L900 491L886.3 490C872.7 489 845.3 487 818 498C790.7 509 763.3 533 736.2 532C709 531 682 505 654.8 504C627.7 503 600.3 527 573 540C545.7 553 518.3 555 491 551C463.7 547 436.3 537 409 529C381.7 521 354.3 515 327 518C299.7 521 272.3 533 245.2 531C218 529 191 513 163.8 512C136.7 511 109.3 525 82 525C54.7 525 27.3 511 13.7 504L0 497Z" fill="#004cbb"></path></svg>